<svg height="496pt" viewBox="0 -2 496.38055 496" width="496pt" xmlns="http://www.w3.org/2000/svg"><path d="m44.847656 488.402344c-1.859375.007812-3.492187-1.230469-3.988281-3.023438-.5-1.789062.261719-3.691406 1.855469-4.644531l41.53125-24.957031-51.636719 29.800781c-1.945313 1-4.335937.3125-5.445313-1.574219-1.113281-1.882812-.558593-4.308594 1.257813-5.527344l83.636719-50.429687-89.253906 51.511719c-1.953126 1.046875-4.382813.367187-5.507813-1.542969s-.539063-4.367187 1.320313-5.566406l45.265624-27.152344-47.195312 27.25c-1.960938 1.167969-4.496094.527344-5.664062-1.429687-1.164063-1.960938-.523438-4.496094 1.433593-5.660157l210.351563-129.074219-210.976563 121.804688c-1.960937 1.164062-4.496093.519531-5.664062-1.441406-1.164063-1.960938-.519531-4.496094 1.441406-5.660156l195.71875-119.585938-192 110.832031c-1.953125 1.078125-4.40625.414063-5.546875-1.503906-1.140625-1.914063-.554688-4.390625 1.324219-5.589844l212.777343-130.476562-208.554687 120.402343c-1.96875 1.15625-4.496094.5-5.652344-1.464843-1.15625-1.964844-.5-4.496094 1.464844-5.652344l56.617187-33.964844-52.429687 30.238281c-1.957031 1.089844-4.429687.421876-5.566406-1.507812-1.140625-1.929688-.53125-4.414062 1.371093-5.601562l97.269532-58.632813-93.074219 53.800781c-1.96875 1.160156-4.5.503906-5.660156-1.460937-1.15625-1.964844-.503907-4.496094 1.464843-5.65625l74.980469-45.054688-70.785156 40.867188c-1.964844 1.160156-4.496094.511719-5.660156-1.453125-1.160157-1.964844-.507813-4.496094 1.457031-5.65625l151.855469-92.109375-147.652344 85.246093c-1.949219 1.027344-4.363281.34375-5.480469-1.550781-1.121094-1.898437-.554687-4.339843 1.285156-5.550781l110.417969-66.617188-106.222656 61.324219c-1.953125 1.046875-4.386719.363281-5.507813-1.542969-1.125-1.910156-.542968-4.367187 1.320313-5.566406l37.539063-22.496094-33.351563 19.257813c-1.949219 1.054687-4.378906.386719-5.515625-1.515625-1.132812-1.898438-.566406-4.359375 1.285156-5.570312l238.59375-147.234376-234.363281 135.308594c-1.96875 1.160156-4.5.503906-5.660156-1.460937-1.15625-1.964844-.503907-4.496094 1.464843-5.65625l86.980469-52.332031-82.785156 47.789062c-1.953125 1.046875-4.386719.367188-5.507813-1.542969-1.125-1.910156-.542968-4.367187 1.320313-5.566406l30.554687-18.265625-26.367187 15.195312c-1.953125 1.046876-4.386719.363282-5.507813-1.546874-1.125-1.90625-.542968-4.363282 1.320313-5.5625l30.710937-18.425782-26.523437 15.34375c-1.941406.976563-4.300781.285156-5.410156-1.582031-1.105469-1.867187-.578125-4.269531 1.207031-5.503906l133.273438-80.753907-129.070313 74.511719c-1.953125 1.046875-4.386719.363281-5.507813-1.546875-1.125-1.90625-.542968-4.363281 1.320313-5.5625l42.992187-25.800781-38.8125 22.398437c-1.949218 1.054688-4.382812.386719-5.515624-1.515624-1.136719-1.902344-.566407-4.359376 1.285156-5.570313l201.125-124.234375-196.886719 113.664062c-1.941406 1.023438-4.339844.351563-5.46875-1.527343-1.128906-1.878907-.589844-4.3125 1.222656-5.542969l197.839844-123.332031-193.59375 111.761719c-1.945313 1.074218-4.390625.414062-5.535156-1.492188-1.140625-1.90625-.574219-4.371094 1.289062-5.582031l166.621094-103.804688-162.375 93.738281c-1.941406 1.007813-4.332031.332032-5.453125-1.546874-1.121094-1.875-.585938-4.304688 1.222656-5.53125l120.832032-74.828126-116.609376 67.355469c-1.964843 1.160157-4.496093.507813-5.660156-1.457031-1.160156-1.960938-.507812-4.492188 1.453125-5.65625l11.621094-7.042969-7.433594 4.269531c-1.9375 1.035157-4.34375.371094-5.480469-1.507812-1.136718-1.882812-.597656-4.320312 1.21875-5.550781l127.011719-80.105469-122.730469 70.820312c-1.96875 1.171876-4.507812.527344-5.679687-1.441406-1.167969-1.964844-.523437-4.507812 1.441406-5.675781l61.570313-38.195313-57.332032 33.132813c-1.945312 1.023437-4.351562.347656-5.472656-1.539063-1.125-1.886718-.574218-4.324218 1.25-5.546874l9.085938-5.597657-4.882813 2.816407c-1.945312 1.1875-4.484375.578124-5.675781-1.367188s-.578125-4.488281 1.367188-5.679688l103.308593-66.980468-98.980469 57.148437c-1.9375 1.0625-4.367187.414063-5.515624-1.46875-1.152344-1.886719-.613282-4.34375 1.21875-5.578125l69.566406-44.789062-65.238282 37.671875c-1.933593 1.148437-4.429687.539062-5.613281-1.371094-1.1875-1.90625-.632812-4.414063 1.253907-5.640625l79.648437-53.328125-75.320313 43.5c-1.917968 1.082031-4.34375.472656-5.519531-1.386719-1.179687-1.859375-.691406-4.3125 1.109375-5.582031l70.191406-48.613281-65.816406 37.984375c-1.914062 1.101562-4.355468.5-5.539062-1.363281-1.183594-1.863282-.695313-4.328126 1.113281-5.597657l48.292969-33.726562-43.832032 25.304687c-1.914062 1.082032-4.339843.480469-5.519531-1.371094-1.183593-1.851562-.707031-4.308593 1.082031-5.582031l27.878907-19.589843-23.441407 13.535156c-1.875 1.074218-4.257812.523437-5.472656-1.261719-1.210937-1.789063-.84375-4.207031.847656-5.550781l31.527344-24.964844-26.902344 15.527344c-1.878906 1.0625-4.257812.503906-5.464843-1.285156-1.207031-1.789063-.828125-4.207032.863281-5.546876l9.347656-7.296874-4.65625 2.683593c-1.742187 1.003907-3.957031.609375-5.242187-.9375-1.285157-1.546875-1.269531-3.796875.039062-5.324219l11.5625-13.558593c-1.972656.359375-3.917969-.753907-4.613281-2.632813-.695312-1.882812.0625-3.988281 1.796875-5l19.101563-11.007812c1.738281-1.003906 3.953124-.609375 5.238281.9375 1.285156 1.546875 1.269531 3.796875-.039063 5.324218l-11.136718 13.023438 35.070312-20.226562c1.875-1.0625 4.257812-.503907 5.464844 1.285156 1.203125 1.789062.828125 4.207031-.867188 5.546875l-9.355468 7.300781 24.484374-14.132812c1.871094-1.066407 4.25-.515626 5.460938 1.265624 1.210938 1.777344.851562 4.191407-.828125 5.539063l-31.527344 24.949219 55.039063-31.753906c1.910156-1.070313 4.320312-.46875 5.5 1.375 1.179687 1.84375.714844 4.289062-1.054688 5.570312l-27.882812 19.582031 45.972656-26.527343c1.910156-1.054688 4.3125-.445313 5.484375 1.398437 1.171875 1.839844.710937 4.273437-1.054687 5.554687l-48.269532 33.726563 70.507813-40.679687c1.910156-1.066407 4.324219-.457032 5.5 1.394531 1.171875 1.847656.699219 4.292969-1.082031 5.570312l-70.195313 48.597657 96.207031-55.5625c1.925782-1.078126 4.359375-.453126 5.523438 1.421874 1.167968 1.871094.65625 4.332032-1.164063 5.582032l-79.6875 53.324218 104.527344-60.328124c1.933594-1.046876 4.347656-.398438 5.492187 1.476562 1.148438 1.875.625 4.320312-1.1875 5.5625l-69.582031 44.789062 89.8125-51.828124c1.9375-1.078126 4.378907-.441407 5.535157 1.449218 1.160156 1.890625.617187 4.355469-1.222657 5.589844l-103.226562 66.9375 128.148437-73.976562c1.945313-1.054688 4.378906-.386719 5.515625 1.515624 1.132813 1.902344.566407 4.359376-1.285156 5.570313l-8.988281 5.527344 21.84375-12.613281c1.945312-1.070313 4.390625-.410157 5.535156 1.496093 1.140625 1.902344.570312 4.371094-1.289062 5.582031l-61.632813 38.203126 78.488281-45.28125c1.9375-1.035157 4.34375-.371094 5.480469 1.507812 1.132813 1.882812.597656 4.324219-1.222656 5.554688l-127.007813 80.152343 151.066406-87.214843c1.949219-1.058594 4.394532-.386719 5.523438 1.527343 1.132812 1.910157.546875 4.375-1.320312 5.578125l-11.636719 7.042969 24.542969-14.148437c1.941406-1.035157 4.355468-.367188 5.488281 1.523437 1.132812 1.890625.582031 4.332031-1.25 5.554687l-120.851563 74.785157 141.832032-81.863281c1.945312-1.070313 4.390624-.410157 5.535156 1.496093 1.140625 1.902344.574218 4.371094-1.289063 5.582031l-166.65625 103.804688 192.109375-110.882812c1.941406-1.050782 4.363282-.386719 5.503906 1.503906 1.136719 1.890625.585938 4.34375-1.253906 5.566406l-197.796875 123.285156 225.816407-130.355468c1.953124-1.097657 4.421874-.441407 5.570312 1.480468 1.152344 1.921875.558594 4.410156-1.332031 5.605469l-201.191407 124.261719 220.433594-127.265625c1.953125-1.046875 4.382813-.367188 5.507813 1.542969 1.121093 1.910156.539062 4.367187-1.324219 5.566406l-42.847656 25.714844 46.648437-26.921876c1.953125-1.058593 4.394531-.386718 5.527344 1.527344 1.128906 1.910156.546875 4.375-1.324219 5.574219l-133.300781 80.75 135.679687-78.328125c1.953126-1.046875 4.382813-.367188 5.507813 1.542969 1.125 1.910156.539063 4.367187-1.320313 5.566406l-30.6875 18.382813 28.945313-16.714844c1.964844-1.15625 4.496094-.5 5.652344 1.464844 1.15625 1.96875.5 4.496093-1.46875 5.652343l-30.644531 18.34375 27.175781-15.691406c1.960937-1.089844 4.429687-.421875 5.566406 1.507813 1.140625 1.929687.53125 4.417968-1.371094 5.601562l-86.9375 52.339844 82.742188-47.789063c1.960937-1.167969 4.496093-.527343 5.664062 1.433594 1.167969 1.957031.523438 4.492187-1.433593 5.660156l-238.59375 147.234375 234.363281-135.308594c1.953125-1.046874 4.386719-.367187 5.507812 1.542969 1.125 1.910157.542969 4.367188-1.320312 5.566407l-37.160157 22.296874 33.03125-19.050781c1.949219-1.027343 4.363282-.34375 5.480469 1.550781 1.121094 1.898438.554688 4.339844-1.285156 5.550782l-110.476563 66.585937 106.222657-61.308593c1.953125-1.0625 4.394531-.390626 5.527343 1.523437 1.132813 1.914063.546876 4.378906-1.320312 5.578125l-151.859375 92.109375 147.652344-85.246094c1.273437-.75 2.847656-.765625 4.132812-.039062 1.285157.726562 2.085938 2.085937 2.097657 3.558593.011718 1.476563-.761719 2.847657-2.035157 3.597657l-74.980469 45.054687 70.785157-40.867187c1.273437-.75 2.847656-.765625 4.132812-.039063 1.285157.726563 2.085938 2.085938 2.097657 3.5625.011718 1.472656-.761719 2.84375-2.035157 3.59375l-97.527343 58.738282 93.316406-53.875c1.953125-1.042969 4.382812-.363282 5.507812 1.546874 1.125 1.90625.542969 4.363282-1.320312 5.566407l-56.292969 33.773437 52.121094-30.042968c1.953125-1.078126 4.410156-.414063 5.546875 1.503906 1.140625 1.914062.554687 4.390625-1.324219 5.589844l-212.777344 130.476562 208.554688-120.441406c1.960937-1.117188 4.449219-.457032 5.597656 1.480468s.53125 4.4375-1.382813 5.621094l-195.71875 119.601563 191.503907-110.558594c1.953125-1.082031 4.410156-.414063 5.546875 1.5 1.140625 1.917969.554687 4.390625-1.324219 5.59375l-210.398437 129.105469 206.175781-119.03125c1.96875-1.15625 4.5-.5 5.65625 1.464844 1.15625 1.964843.5 4.496093-1.46875 5.652343l-45.507813 27.300781 41.289063-23.847656c1.949219-1.027344 4.359375-.34375 5.480469 1.550782 1.121093 1.898437.554687 4.339843-1.285157 5.550781l-83.332031 50.265625 79.167969-45.707032c1.960937-1.089843 4.429687-.421874 5.566406 1.507813 1.140625 1.929687.53125 4.414063-1.371094 5.601563l-41.289062 24.839843 37.160156-21.46875c1.960937-1.167969 4.496094-.523437 5.664063 1.441407 1.164062 1.960937.519531 4.492187-1.441407 5.660156l-149.792969 91.796875 145.503907-83.992188c1.941406-1.023437 4.339843-.355469 5.46875 1.523438 1.128906 1.878906.589843 4.3125-1.222657 5.542969l-180.429687 112.550781 176.183594-101.722657c1.941406-1.023437 4.339843-.351562 5.46875 1.523438 1.128906 1.878906.589843 4.3125-1.222657 5.542969l-154.566406 96.53125 150.296875-86.792969c1.964844-1.160156 4.496094-.511719 5.65625 1.453125 1.160157 1.964844.511719 4.496094-1.453125 5.65625l-16.078125 9.746094 11.875-6.847657c1.945313-1.054687 4.378907-.386718 5.515625 1.515626 1.132813 1.898437.566406 4.359374-1.285156 5.570312l-87.183594 53.984375 82.988282-47.898437c1.9375-1.023438 4.335937-.351563 5.464843 1.527343 1.128907 1.878907.589844 4.3125-1.222656 5.542969l-91.035156 56.847656 86.792969-50.101562c1.941406-1.050782 4.363281-.390625 5.503906 1.5 1.136718 1.894531.585937 4.34375-1.253906 5.566406l-80.53125 50.558594 76.28125-44.050782c1.941406-1.109374 4.417968-.46875 5.578124 1.445313 1.160157 1.917969.582032 4.40625-1.300781 5.617187l-81.128906 51.570313 76.851563-44.363281c1.933593-1.0625 4.363281-.414063 5.515624 1.46875 1.148438 1.886718.609376 4.34375-1.222656 5.578125l-72.085937 46.242187 67.792969-39.132812c1.917968-1.050782 4.320312-.425782 5.480468 1.429687 1.164063 1.851563.675782 4.289063-1.105468 5.554688l-90.929688 61.425781 86.554688-49.96875c1.933593-1.050781 4.355468-.394531 5.496093 1.488281 1.140625 1.882813.605469 4.332031-1.21875 5.5625l-13.667969 8.730469 9.390626-5.417969c1.929687-1.078125 4.367187-.449219 5.527343 1.433594 1.160157 1.878906.636719 4.34375-1.195312 5.585937l-31.957031 21.039063 27.625-15.9375c1.902343-1.035156 4.28125-.425781 5.453124 1.398437 1.167969 1.824219.726563 4.246094-1.011718 5.539063l-48.070313 33.941406 43.628907-25.171875c1.890624-1.074218 4.292968-.496094 5.488281 1.324219 1.195312 1.816406.773437 4.253906-.964844 5.5625l-37.410156 27.765625 32.886719-18.996094c1.847656-1.070312 4.210937-.550781 5.441406 1.195313 1.234375 1.746093.929687 4.144531-.703125 5.527343l-29.933594 25.519532 25.195313-14.542969c1.820312-1.109375 4.191406-.644531 5.460937 1.070313 1.269531 1.714843 1.027344 4.113281-.566406 5.535156l-13.789063 13.066406 6.664063-3.851562c1.277343-.8125 2.902343-.859376 4.226562-.121094 1.324219.742187 2.136719 2.148437 2.117188 3.664062s-.871094 2.898438-2.214844 3.601563l-37.011719 21.304687c-1.824218 1.128906-4.210937.671875-5.488281-1.046875-1.277344-1.722656-1.027344-4.136719.582031-5.558593l13.796875-13.0625-34.019531 19.667968c-1.847656 1.050782-4.191406.527344-5.414062-1.207031-1.226563-1.734375-.933594-4.117187.671874-5.503906l29.9375-25.492188-55.816406 32.203125c-1.894531 1.078125-4.296875.5-5.492187-1.320312-1.195313-1.820313-.773438-4.253906.964843-5.566406l37.410157-27.738282-60.003907 34.683594c-1.902343 1.039062-4.285156.429688-5.453124-1.398438-1.167969-1.824218-.726563-4.242187 1.011718-5.539062l48.101563-33.964844-70.878907 40.84375c-1.933593 1.121094-4.40625.503906-5.582031-1.398437-1.175781-1.898438-.628906-4.390625 1.238281-5.621094l31.902344-21-48.515625 28.019531c-1.941406 1.085938-4.390625.441406-5.546875-1.457031-1.152344-1.898437-.597656-4.371094 1.257813-5.59375l13.691406-8.738281-27.382813 15.789062c-1.917968 1.054688-4.320312.425782-5.484374-1.425781-1.160157-1.855469-.675782-4.292969 1.109374-5.558594l90.894532-61.375-118.417969 68.359375c-1.941406 1.105469-4.40625.46875-5.566406-1.433594-1.164063-1.90625-.605469-4.386718 1.261719-5.609374l72.078124-46.246094-92.316406 53.289062c-1.941406 1.085938-4.390625.441406-5.542968-1.457031-1.15625-1.898437-.601563-4.371094 1.253906-5.59375l81.1875-51.578125-101.574219 58.628906c-1.945313 1.089844-4.40625.441406-5.554687-1.46875-1.152344-1.910156-.578126-4.386718 1.292968-5.597656l80.464844-50.515625-99.789062 57.582031c-1.941407 1.054688-4.367188.390625-5.503907-1.5-1.140625-1.890625-.585937-4.34375 1.25-5.566406l91.078125-56.890625-110.78125 63.957031c-1.941406 1.039063-4.355468.371094-5.488281-1.519531-1.128906-1.890625-.578125-4.335937 1.253906-5.554687l87.136719-53.933594-105.679688 61.007812c-1.957031 1.117188-4.445312.457032-5.59375-1.480468-1.148437-1.9375-.535156-4.4375 1.382813-5.621094l16.023437-9.710938-29.144531 16.8125c-1.9375 1.023438-4.335937.355469-5.464843-1.523437-1.128907-1.878907-.59375-4.3125 1.21875-5.542969l154.550781-96.488281-179.414063 103.554687c-1.941406 1.054688-4.367187.390625-5.503906-1.5-1.140625-1.890625-.585938-4.34375 1.25-5.566406l180.472656-112.542969-207.21875 119.609375c-1.960937 1.167969-4.496094.527344-5.660156-1.429687-1.167969-1.960938-.527344-4.496094 1.429688-5.664063l149.636718-91.71875-171.15625 98.8125c-.625.375-1.335937.578125-2.0625.585938zm0 0" fill="#fab153"/><path d="m103.058594 455.371094c-1.847656 0-3.472656-1.226563-3.976563-3.003906-.503906-1.777344.238281-3.675782 1.8125-4.640626l89.367188-54.949218-107.460938 62.007812c-1.949219 1.125-4.441406.480469-5.601562-1.449218-1.160157-1.929688-.558594-4.433594 1.347656-5.628907l155.316406-96.683593-174.175781 100.566406c-1.964844 1.164062-4.5.515625-5.664062-1.449219-1.160157-1.964844-.511719-4.496094 1.449218-5.660156l71.914063-43.675781-73.488281 42.417968c-1.941407 1.054688-4.367188.390625-5.507813-1.5-1.136719-1.890625-.585937-4.34375 1.253906-5.566406l195.460938-122.21875-192.488281 111.121094c-1.957032 1.113281-4.445313.453125-5.597657-1.484375-1.148437-1.9375-.53125-4.4375 1.386719-5.621094l124.242188-76.089844-120.03125 69.320313c-1.949219 1.039062-4.371094.363281-5.496094-1.535156-1.128906-1.898438-.5625-4.347657 1.285156-5.558594l109.3125-66.765625-105.101562 60.671875c-1.953126 1.058594-4.394532.386718-5.527344-1.523438-1.128906-1.914062-.546875-4.378906 1.324218-5.578125l55.328126-33.519531-51.125 29.511719c-1.957032 1.117187-4.445313.457031-5.597657-1.480469-1.148437-1.9375-.53125-4.4375 1.386719-5.621094l94.867188-58.003906-90.664063 52.339844c-1.957031 1.089844-4.425781.421875-5.566406-1.507813-1.136719-1.929687-.53125-4.417969 1.371093-5.601562l9.621094-5.78125-5.425781 3.128906c-1.933594 1.023437-4.328125.359375-5.460937-1.511719-1.132813-1.871094-.609376-4.300781 1.191406-5.539062l157.308594-99.785156-153.039063 88.347656c-1.949219 1.125-4.441406.480468-5.601563-1.453125-1.160156-1.929688-.558593-4.429688 1.347657-5.625l109.007812-68.410157-104.753906 60.53125c-1.953125 1.097657-4.421875.445313-5.570313-1.476562-1.148437-1.921875-.558593-4.410156 1.332032-5.609375l62.945312-39.160156-58.707031 33.859375c-1.929687 1.0625-4.355469.421875-5.511719-1.453125-1.152344-1.878907-.628906-4.332031 1.191406-5.574219l120.839844-78.996094-116.519531 67.292969c-1.941406 1.054687-4.367187.390625-5.503906-1.5-1.140625-1.890625-.589844-4.34375 1.25-5.566406l39.507812-24.832031-35.253906 20.339843c-1.945313 1.070313-4.390625.410157-5.535156-1.496093-1.140625-1.902344-.570313-4.371094 1.289062-5.582032l3.410157-2.121094c-1.949219.605469-4.050782-.304687-4.941407-2.144531-.890625-1.839843-.300781-4.050781 1.382813-5.207031l87.339844-59.78125-82.945313 47.898438c-1.925781 1.097656-4.371094.480468-5.546875-1.398438-1.171875-1.875-.65625-4.34375 1.167969-5.597656l54.273437-36.679688-49.894531 28.769532c-1.902344 1.050781-4.292969.449218-5.46875-1.378907s-.734375-4.253906 1.007813-5.550781l52.027343-37.160156-47.566406 27.476562c-1.929687 1.140625-4.414063.539063-5.605469-1.359375-1.1875-1.898437-.648437-4.398437 1.21875-5.636719l9.628906-6.53125-5.242187 3.019532c-1.886719 1.054687-4.261719.476562-5.453125-1.320313-1.195312-1.800781-.800781-4.214843.902344-5.539062l26.03125-19.703125-21.472656 12.386718c-1.808594 1.03125-4.101563.554688-5.347657-1.113281-1.25-1.664062-1.0625-4 .433594-5.445312l22.882813-21.882813-17.976563 10.414063c-1.617187.925781-3.65625.652343-4.972656-.667969-1.320313-1.320312-1.589844-3.355469-.660157-4.972656l8.125-14.039063h-.066406c-1.960937 1.023438-4.378906.324219-5.488281-1.59375-1.105469-1.914062-.507813-4.363281 1.359375-5.550781l13.4375-7.761719c1.617188-.933593 3.664062-.664062 4.984375.65625 1.320313 1.320313 1.589844 3.367188.65625 4.984375l-8.117187 14.078125 34.320312-19.816406c1.808594-1.03125 4.101562-.554687 5.347656 1.109375 1.25 1.664062 1.0625 4-.433594 5.445312l-22.894531 21.851563 49.253907-28.40625c1.886718-1.074219 4.28125-.503906 5.480468 1.300781 1.199219 1.808594.796875 4.238282-.921875 5.558594l-26.007812 19.679688 45.984375-26.539063c1.921875-1.117187 4.382812-.511719 5.566406 1.371094 1.183594 1.882812.664062 4.363281-1.175781 5.613281l-9.710938 6.605469 23.527344-13.589844c1.90625-1.089844 4.332031-.496094 5.519531 1.351563 1.1875 1.847656.722656 4.300781-1.058594 5.582031l-52.027343 37.164062 76.3125-44.097656c1.917969-1.054687 4.324219-.425781 5.484375 1.425781 1.160156 1.855469.675781 4.292969-1.105469 5.558594l-54.273437 36.714844 75.726562-43.699219c1.917969-1.066406 4.332031-.449219 5.5 1.40625s.683594 4.300781-1.105469 5.570313l-87.363281 59.773437 115.664062-66.75c1.949219-1.125 4.441407-.480469 5.601563 1.449219 1.15625 1.929687.558594 4.433594-1.351563 5.625l-.875.546875 13.214844-7.621094c1.933594-1.011719 4.320313-.339844 5.445313 1.527344 1.125 1.871093.601562 4.292969-1.195313 5.53125l-39.511718 24.816406 55.269531-31.875c1.929687-1.066406 4.355469-.425781 5.511719 1.453125 1.152343 1.878906.628906 4.332031-1.191407 5.574219l-120.847656 78.980469 149.015625-86.007813c1.945312-1.074219 4.390625-.414063 5.53125 1.492187 1.144531 1.902344.574219 4.371094-1.289062 5.582032l-62.898438 39.078125 79.996094-46.152344c1.941406-1.089844 4.402344-.441406 5.554687 1.46875 1.148438 1.910156.578125 4.386719-1.296875 5.597656l-109.105468 68.425781 130.824218-75.492187c1.933594-1.023437 4.332032-.359375 5.460938 1.511719 1.132812 1.871094.613281 4.300781-1.191406 5.539062l-157.304688 99.714844 184.996094-106.765625c1.953125-1.0625 4.394531-.390625 5.523437 1.523437 1.132813 1.910157.550781 4.375-1.320312 5.578126l-9.703125 5.871093 22.46875-12.972656c1.953125-1.082031 4.40625-.414063 5.546875 1.5 1.140625 1.917969.554687 4.390625-1.324219 5.59375l-94.632812 57.835937 105.65625-61c1.960937-1.160156 4.496093-.511718 5.65625 1.453126 1.160156 1.964843.507812 4.496093-1.453126 5.65625l-55.386718 33.554687 56.367187-32.539063c1.953125-1.078124 4.410157-.414062 5.546875 1.503907 1.140625 1.914062.554688 4.390625-1.324218 5.589843l-109.214844 66.734376 106.132812-61.277344c1.957032-1.113282 4.449219-.453125 5.597656 1.484375 1.148438 1.9375.53125 4.4375-1.386718 5.621093l-124.40625 76.152344 120.195312-69.367187c1.9375-1.019531 4.339844-.351563 5.46875 1.527343 1.125 1.878907.589844 4.3125-1.222656 5.542969l-195.445312 122.21875 191.199218-110.417969c1.953125-1.0625 4.394532-.386718 5.527344 1.523438 1.132812 1.914062.546875 4.378906-1.324219 5.578125l-71.785156 43.609375 67.582031-39.019531c1.945313-1.070313 4.390625-.410157 5.535156 1.496093 1.140626 1.902344.570313 4.371094-1.289062 5.582032l-155.402344 96.769531 151.164063-87.273437c1.945312-1.023438 4.351562-.347657 5.472656 1.542968 1.125 1.886719.574219 4.324219-1.25 5.542969l-89.355469 54.941406 85.132813-49.144531c1.953125-1.125 4.441406-.476562 5.601562 1.453125 1.160157 1.929687.5625 4.429687-1.347656 5.625l-128.296875 80.605469 124.0625-71.613282c1.941406-1.023437 4.347656-.347656 5.472656 1.542969 1.121094 1.886719.570313 4.324219-1.253906 5.542969l-42.289062 26.003906 38.070312-21.972656c1.949219-1.097656 4.417969-.445312 5.570312 1.476562 1.148438 1.921876.554688 4.410157-1.335937 5.609376l-52.667969 32.652343 48.433594-27.953125c1.9375-1.105468 4.402344-.46875 5.566406 1.433594 1.160156 1.90625.601563 4.386719-1.265625 5.609375l-107.171875 69.175781 102.851563-59.375c1.941406-1.101562 4.40625-.464844 5.566406 1.4375 1.164063 1.902344.605469 4.386719-1.261719 5.609375l-84.753906 54.90625 80.449219-46.441406c1.925781-1.097656 4.371093-.480469 5.546875 1.394531 1.171875 1.878906.660156 4.347656-1.167969 5.597656l-92.988281 63.09375 88.609375-51.152343c1.921875-1.097657 4.363281-.488281 5.542969 1.382812 1.179687 1.867188.675781 4.335938-1.140626 5.59375l-69.871093 47.941407 65.46875-37.796876c1.929687-1.082031 4.367187-.449218 5.53125 1.433594 1.160156 1.878906.632812 4.34375-1.195313 5.582032l-22.484375 14.867187 18.167969-10.480469c1.898438-1.097656 4.320312-.519531 5.519531 1.316406 1.199219 1.835938.753907 4.289063-1.011719 5.585938l-47.722656 35.015625 43.195313-24.929687c1.902343-1.09375 4.328125-.507813 5.523437 1.335937 1.191406 1.839844.734375 4.292969-1.039062 5.582031l-21.59375 15.617188 17.109375-9.910156c1.890625-1.089844 4.304687-.523438 5.507812 1.296874 1.207031 1.824219.785157 4.269532-.964843 5.582032l-11.453126 8.597656 6.910157-3.996094c1.84375-1.058594 4.191406-.546875 5.421875 1.183594 1.234375 1.734375.949218 4.117188-.65625 5.511719l-11.476563 9.910156 6.710938-3.871094c1.824219-1.09375 4.175781-.621093 5.441406 1.085938 1.261719 1.707031 1.023437 4.09375-.550781 5.519531l-3.03125 2.847656c1.867187 0 3.503906 1.253906 3.988281 3.0625.484375 1.804688-.304687 3.707032-1.925781 4.644532l-26.96875 15.605468c-1.824219 1.109375-4.191406.644532-5.460938-1.070312-1.273437-1.710938-1.027344-4.113282.5625-5.535156l1.257813-1.179688-13.453125 7.761719c-1.839844 1.039062-4.167969.519531-5.394532-1.199219-1.226562-1.722656-.953124-4.089844.628907-5.492188l11.480469-9.90625-28.804688 16.621094c-1.894531 1.09375-4.308594.523438-5.511719-1.300781s-.777343-4.265625.96875-5.578125l11.460938-8.605469-26.820313 15.484375c-1.902344 1.09375-4.328125.507813-5.519531-1.335937-1.195313-1.839844-.738281-4.292969 1.035156-5.582031l21.570313-15.617188-39.0625 22.542969c-1.898438 1.097656-4.324219.519531-5.519532-1.316407-1.199218-1.835937-.753906-4.289062 1.011719-5.585937l47.707031-35.03125-72.671874 41.933594c-1.925782 1.0625-4.347657.429687-5.503907-1.4375-1.160156-1.871094-.648437-4.320313 1.160157-5.574219l22.511718-14.863281-37.863281 21.867187c-1.914063 1.054688-4.316406.4375-5.484375-1.410156-1.164062-1.847656-.691406-4.285156 1.082031-5.558594l69.890625-47.953125-95.152344 54.921875c-1.917968 1.050782-4.320312.425782-5.480468-1.429687-1.164063-1.851563-.675782-4.289063 1.105468-5.554688l93.003907-63.078125-121.394531 70.0625c-1.933594 1.082032-4.378907.441406-5.535157-1.445312-1.15625-1.890625-.617187-4.359375 1.222657-5.589844l84.746093-54.898438-107.355469 61.933594c-1.933593 1.082032-4.378906.441406-5.535156-1.445312-1.15625-1.890625-.617187-4.359375 1.222656-5.589844l107.207032-69.152344-132.039063 76.1875c-1.945312 1.070313-4.390625.414063-5.53125-1.492187s-.574219-4.371094 1.289063-5.585938l52.703125-32.675781-68.875 39.753906c-1.945313 1.054688-4.378907.386719-5.511719-1.511718-1.136719-1.902344-.566406-4.359376 1.285156-5.574219l42.117188-25.914063-57.164063 33.035156c-1.945312 1.089844-4.402343.4375-5.554687-1.472656-1.148438-1.910156-.578125-4.386718 1.292968-5.597656l128.355469-80.640625-151.898437 87.675781c-.625.375-1.335938.578125-2.0625.585938zm0 0" fill="#f4f6f8"/><path d="m56.085938 356.515625c-1.8125 0-3.414063-1.179687-3.945313-2.910156-.535156-1.730469.121094-3.609375 1.617187-4.628907l3.980469-2.703124-5.078125 2.925781c-1.898437 1.085937-4.3125.507812-5.507812-1.320313-1.199219-1.828125-.765625-4.273437.988281-5.578125l39.976563-29.5625-35.5 20.480469c-1.890626 1.066406-4.285157.488281-5.476563-1.324219-1.195313-1.8125-.785156-4.238281.941406-5.554687l42.117188-31.378906-37.582031 21.667968c-1.914063 1.097656-4.355469.496094-5.539063-1.367187s-.695313-4.328125 1.113281-5.59375l6.96875-4.863281-2.542968 1.460937c-1.816407.972656-4.074219.460937-5.289063-1.203125-1.214844-1.667969-1.015625-3.972656.464844-5.40625l25.503906-22.921875-20.648437 11.933594c-1.78125 1.015625-4.035157.570312-5.300782-1.046875-1.261718-1.617188-1.144531-3.914063.273438-5.394532l10.082031-10.429687-5.054687 2.914063c-1.425782.820312-3.203126.714843-4.523438-.269532-1.320312-.980468-1.929688-2.65625-1.554688-4.257812l2.480469-10.402344c-1.457031-.597656-2.445312-1.972656-2.550781-3.539062-.109375-1.570313.683594-3.0625 2.046875-3.851563l4.128906-2.398437c1.425781-.824219 3.207031-.722657 4.53125.261718s1.933594 2.660156 1.554688 4.265625l-1.957031 8.257813 22.296874-12.859375c1.78125-1.015625 4.039063-.570313 5.300782 1.046875 1.261718 1.617187 1.144531 3.914062-.273438 5.394531l-10.15625 10.40625 29.339844-16.9375c1.816406-.972656 4.074219-.460937 5.289062 1.203125 1.214844 1.664062 1.015626 3.972656-.464843 5.402344l-25.492188 22.960937 51.347657-29.648437c1.914062-1.097656 4.355468-.496094 5.539062 1.367187s.695312 4.328125-1.113281 5.59375l-6.984375 4.882813 15.6875-9.085938c1.890625-1.066406 4.285156-.488281 5.480468 1.324219 1.191407 1.8125.78125 4.238281-.945312 5.554687l-42.117188 31.382813 37.625-21.71875c1.894532-1.0625 4.285157-.476563 5.472657 1.339844 1.1875 1.816406.765625 4.246093-.964844 5.554687l-40 29.578125 35.507813-20.503906c1.917968-1.097656 4.363281-.488281 5.542968 1.382813 1.179688 1.871093.675782 4.335937-1.140625 5.597656l-4.070312 2.78125c1.929687-.871094 4.203125-.144532 5.269531 1.6875 1.0625 1.832031.570312 4.167968-1.140625 5.414062l-4.492187 3.1875h.066406c1.804687-1.070312 4.128906-.613281 5.394531 1.058594 1.269531 1.675781 1.078125 4.035156-.441406 5.480469l-20.933594 20.324219 16.035156-9.273438c1.820313-1.027344 4.121094-.535156 5.359375 1.148438 1.238282 1.6875 1.023438 4.027343-.503906 5.457031l-2.664062 2.480469c.863281.015624 1.703124.304687 2.394531.824218 1.316406 1.003906 1.910156 2.695313 1.5 4.300782l-2.300781 9.117187c1.414062.632813 2.359374 2.003906 2.441406 3.550781.085937 1.546875-.707032 3.011719-2.046875 3.792969l-4.128907 2.394531c-1.433593.828125-3.226562.71875-4.546874-.28125-1.324219-.996094-1.921876-2.6875-1.523438-4.292968l1.71875-6.839844-19.878906 11.472656c-1.816406 1.011719-4.105469.511719-5.335938-1.164062-1.234375-1.679688-1.023437-4.011719.488282-5.445313l.636718-.585937-12.550781 7.242187c-1.808594 1.074219-4.128906.617187-5.398437-1.058594-1.269532-1.671875-1.078126-4.03125.441406-5.480469l20.96875-20.289062-46.582032 26.902344c-1.910156 1.089844-4.332031.496094-5.519531-1.351563-1.1875-1.847656-.722656-4.300781 1.058594-5.582031l4.515625-3.222656-17.65625 10.199218c-.625.371094-1.339844.566407-2.070312.570313zm0 0" fill="#e4e8eb"/><path d="m151.054688 257.417969c-1.777344 0-3.355469-1.136719-3.917969-2.824219-.5625-1.683594.015625-3.542969 1.4375-4.609375l40.96875-30.554687-37.828125 21.820312c-1.902344 1.089844-4.328125.503906-5.519532-1.335938-1.195312-1.84375-.738281-4.296874 1.035157-5.585937l32.882812-23.734375-28.398437 16.386719c-1.871094 1.066406-4.246094.515625-5.460938-1.265625-1.210937-1.777344-.851562-4.191406.828125-5.539063l43.511719-34.601562-38.878906 22.425781c-1.902344 1.09375-4.328125.507812-5.519532-1.335938-1.195312-1.839843-.738281-4.292968 1.035157-5.582031l4.070312-2.949219c-1.894531.757813-4.0625.015626-5.09375-1.746093s-.621093-4.011719.964844-5.296875l3.667969-2.832032c-1.765625.507813-3.652344-.207031-4.636719-1.757812s-.824219-3.5625.390625-4.941406l9.710938-11.03125-4.550782 2.617187c-1.449218.835938-3.257812.714844-4.582031-.308593-1.328125-1.023438-1.902344-2.742188-1.460937-4.355469l2.179687-7.945313c-.742187-.359375-1.359375-.933594-1.765625-1.652344-1.136719-1.972656-.464844-4.488281 1.5-5.632812l4.128906-2.394531c1.449219-.839844 3.261719-.71875 4.589844.300781 1.324219 1.019531 1.902344 2.742188 1.464844 4.355469l-1.496094 5.460937 17.625-10.175781c1.75-1.003906 3.96875-.59375 5.246094.964844 1.277344 1.5625 1.242187 3.820312-.085938 5.335937l-9.746094 11.050782 30.160157-17.40625c1.878906-1.074219 4.269531-.515626 5.472656 1.28125 1.207031 1.796874.824219 4.222656-.882813 5.554687l-2.921874 2.261719 15.839843-9.148438c1.902344-1.09375 4.328125-.507812 5.519531 1.335938 1.191407 1.839844.738282 4.292968-1.035156 5.582031l-3.867187 2.800781 16.90625-9.761718c1.875-1.09375 4.277343-.550782 5.496093 1.242187 1.222657 1.796875.84375 4.230469-.863281 5.570313l-43.527343 34.621093 50.554687-29.1875c1.902344-1.089843 4.328125-.503906 5.519531 1.335938 1.191406 1.84375.738282 4.296875-1.035156 5.585937l-32.875 23.734375 28.429688-16.417969c1.890624-1.046874 4.265624-.460937 5.449218 1.34375 1.1875 1.804688.785156 4.214844-.921875 5.535157l-40.976562 30.554687 36.484375-21.050781c1.867187-1.074219 4.246094-.53125 5.464844 1.242187 1.21875 1.777344.867187 4.191407-.808594 5.546876l-27.894532 22.429687 23.296876-13.453125c1.878906-1.085938 4.277343-.535156 5.492187 1.265625 1.210937 1.796875.828125 4.230469-.886719 5.5625l-4.953125 3.839844.339844-.195313c1.652344-.949218 3.738281-.644531 5.050781.738282 1.3125 1.382812 1.507813 3.480468.472656 5.082031l-9.910156 15.335937 4.46875-2.585937c1.972656-1.121094 4.480469-.441407 5.617188 1.527343 1.132812 1.964844.46875 4.476563-1.488282 5.625l-19.382812 11.183594c-1.652344.949219-3.742188.644532-5.050781-.738281-1.3125-1.382813-1.507813-3.484375-.472657-5.085937l9.910157-15.316407-36.765625 21.222657c-1.878906 1.0625-4.257813.503906-5.464844-1.285157-1.203125-1.789062-.828125-4.207031.863281-5.546875l4.957031-3.847656-18.589843 10.734375c-1.867188 1.058594-4.226563.507813-5.441407-1.257813-1.210937-1.769531-.867187-4.171874.792969-5.527343l27.902344-22.421875-50.71875 29.28125c-.617187.359375-1.316406.546875-2.023437.546875zm0 0" fill="#e4e8eb"/><path d="m169.519531 455.5625c-1.757812 0-3.328125-1.109375-3.90625-2.769531-.578125-1.660157-.042969-3.503907 1.335938-4.597657l34.476562-27.269531-49.710937 28.699219c-1.914063 1.054688-4.316406.433594-5.484375-1.414062-1.167969-1.84375-.691407-4.28125 1.082031-5.554688l12.511719-8.605469-8.109375 4.671875c-1.882813 1.058594-4.261719.492188-5.460938-1.304687-1.195312-1.792969-.8125-4.207031.886719-5.539063l49.101563-37.765625-44.527344 25.699219c-1.90625 1.105469-4.34375.519531-5.539063-1.332031-1.195312-1.851563-.730469-4.3125 1.0625-5.597657l21.546875-15.472656-17.070312 9.851563c-1.90625 1.074219-4.316406.480469-5.503906-1.359375-1.183594-1.835938-.730469-4.28125 1.035156-5.570313l3.734375-2.683593c-1.898438.640624-3.980469-.167969-4.945313-1.921876-.964844-1.757812-.53125-3.949218 1.03125-5.207031l9.71875-7.828125-5.070312 2.917969c-1.742188.992187-3.945313.59375-5.226563-.949219-1.28125-1.542968-1.269531-3.785156.03125-5.3125l9.53125-11.097656-4.335937 2.476562c-1.457032.835938-3.273438.707032-4.597656-.324218-1.324219-1.035156-1.890626-2.765625-1.433594-4.382813l2.089844-7.347656c-.714844-.371094-1.304688-.945313-1.691407-1.652344-1.136719-1.972656-.464843-4.488281 1.503907-5.632812l4.128906-2.394531c1.453125-.839844 3.273437-.714844 4.597656.316406 1.324219 1.035156 1.894531 2.765625 1.4375 4.382812l-1.34375 4.753906 16.464844-9.503906c1.742187-1.003906 3.957031-.605468 5.242187.941406 1.285157 1.550782 1.261719 3.800782-.046875 5.328126l-9.53125 11.082031 30.191406-17.417969c1.867188-1.054688 4.230469-.507812 5.441407 1.261719 1.210937 1.769531.867187 4.167969-.792969 5.527343l-9.683594 7.8125 25.375-14.660156c1.902344-1.074218 4.316406-.480468 5.5 1.359375 1.1875 1.835938.734375 4.28125-1.03125 5.570313l-3.171875 2.28125 16.019531-9.25c1.90625-1.105469 4.34375-.519532 5.539063 1.332031s.730469 4.3125-1.0625 5.597656l-21.511719 15.457031 26.839844-15.492187c1.878906-1.058594 4.257812-.488281 5.457031 1.304687 1.199219 1.792969.8125 4.210938-.882812 5.542969l-49.113281 37.78125 44.59375-25.742187c1.921874-1.097656 4.363281-.488282 5.542968 1.382812 1.179688 1.867188.675782 4.335938-1.140625 5.59375l-12.535156 8.621094 8.160156-4.707031c1.875-1.09375 4.277344-.550781 5.496094 1.246093 1.222656 1.792969.84375 4.226563-.863281 5.570313l-34.429688 27.25 29.835938-17.226563c1.855468-1.066406 4.222656-.539062 5.445312 1.21875 1.226563 1.753907.90625 4.15625-.738281 5.527344l-17.183594 14.246094 12.511719-7.226562c1.839844-1.042969 4.171875-.523438 5.398438 1.203124 1.226562 1.726563.949218 4.097657-.644532 5.496094l-3.9375 3.410156c1.476563-.476562 3.097656-.085937 4.195313 1.011719 1.09375 1.101563 1.480469 2.722657 1 4.199219l-3.855469 11.699219c1.867188.011719 3.496094 1.273437 3.972656 3.078125.476563 1.808594-.320312 3.707031-1.941406 4.636718l-7.011719 4.039063c-1.484375.851563-3.339843.699219-4.667969-.378906-1.324218-1.082031-1.847656-2.871094-1.3125-4.496094l3.566407-10.847656-27.292969 15.796875c-1.839844 1.042968-4.171875.523437-5.398438-1.203125-1.226562-1.726563-.945312-4.097657.644532-5.496094l3.574218-3.085937-17.027343 9.824218c-1.855469 1.050782-4.203125.515625-5.421875-1.234375-1.214844-1.746093-.902344-4.136719.722656-5.511719l17.128906-14.246093-36.46875 21.058593c-.621094.363282-1.328125.554688-2.046875.554688zm0 0" fill="#e4e8eb"/><path d="m271.140625 356.457031c-1.75 0-3.308594-1.105469-3.890625-2.753906s-.0625-3.488281 1.300781-4.585937l35.1875-28.433594-52.925781 30.554687c-1.90625 1.089844-4.328125.503907-5.523438-1.335937-1.191406-1.839844-.738281-4.292969 1.039063-5.585938l33.03125-23.882812-28.589844 16.519531c-1.914062 1.097656-4.355469.496094-5.539062-1.367187-1.183594-1.863282-.695313-4.328126 1.113281-5.597657l18.738281-13.046875-14.3125 8.257813c-1.882812 1.082031-4.28125.519531-5.488281-1.28125-1.207031-1.804688-.8125-4.234375.90625-5.5625l39.503906-30.449219-34.878906 20.148438c-1.894531 1.09375-4.308594.523437-5.511719-1.300782-1.203125-1.820312-.777343-4.265625.96875-5.578125l13.210938-9.90625-8.644531 4.953125c-1.757813 1.015625-3.988282.601563-5.269532-.96875-1.277344-1.574218-1.226562-3.84375.125-5.355468l17.917969-20.09375-12.796875 7.433593c-1.410156.808594-3.15625.714844-4.472656-.234375-1.316406-.945312-1.953125-2.578125-1.632813-4.167968l2.675781-13.007813c-.933593-.316406-1.71875-.972656-2.203124-1.832031-1.136719-1.972656-.464844-4.488282 1.5-5.632813l4.132812-2.394531c1.40625-.808594 3.152344-.714844 4.46875.230469 1.316406.949219 1.953125 2.582031 1.632812 4.171875l-2.289062 11.132812 27.039062-15.609375c1.753907-1.011719 3.988282-.601562 5.265626.972657 1.28125 1.570312 1.226562 3.839843-.121094 5.351562l-17.914063 20.085938 45.898438-26.5c1.894531-1.09375 4.308593-.523438 5.511719 1.300781 1.203124 1.824219.777343 4.265625-.96875 5.578125l-13.210938 9.910156 29.171875-16.839844c1.882813-1.078125 4.28125-.519531 5.488281 1.285156 1.207032 1.800782.8125 4.234376-.902344 5.5625l-39.507812 30.445313 44.925781-25.9375c1.914063-1.097656 4.355469-.496094 5.539063 1.367187 1.183594 1.863282.691406 4.328126-1.113282 5.59375l-18.722656 13.03125 14.320313-8.257812c1.902343-1.089844 4.328125-.503906 5.519531 1.335938 1.195312 1.839843.738281 4.292968-1.035156 5.585937l-33.03125 23.890625 28.613281-16.515625c1.863281-1.070313 4.238281-.53125 5.453125 1.238281 1.21875 1.769532.875 4.179688-.789062 5.539063l-35.1875 28.425781 30.554687-17.640625c1.820313-1.027344 4.121094-.535156 5.359375 1.148437 1.238281 1.6875 1.023438 4.027344-.503906 5.457032l-20.207032 18.507812 15.394532-8.894531c1.8125-1.109375 4.167968-.660156 5.449218 1.03125 1.28125 1.695313 1.066407 4.085937-.496093 5.527344l-4.351563 4.128906c1.460938-.582031 3.121094-.28125 4.289063.769531 1.167969 1.050782 1.636719 2.671875 1.210937 4.183594l-2.535156 8.917969c.917969.328125 1.691406.972656 2.171875 1.816406 1.136719 1.976563.460937 4.492187-1.511719 5.632813l-4.773437 2.757812c-1.453125.839844-3.273438.714844-4.597657-.316406-1.324218-1.03125-1.894531-2.765625-1.4375-4.382813l1.914063-6.859375-20.179687 11.644532c-1.808594 1.027343-4.101563.550781-5.351563-1.113282-1.246094-1.664062-1.058594-4 .4375-5.445312l4.21875-4.039063-18.449219 10.644531c-1.820312 1.027344-4.117187.535157-5.355468-1.148437-1.238282-1.683594-1.023438-4.027344.5-5.457031l20.191406-18.480469-43.601563 25.175781c-.628906.363282-1.339843.554688-2.066406.546875zm0 0" fill="#e4e8eb"/><path d="m364.457031 257.417969c-1.796875.003906-3.386719-1.15625-3.933593-2.867188-.550782-1.710937.070312-3.578125 1.53125-4.621093l12.496093-8.914063-24.644531 14.171875c-1.910156 1.042969-4.300781.425781-5.464844-1.414062-1.164062-1.839844-.703125-4.265626 1.054688-5.546876l15.882812-11-11.472656 6.605469c-1.890625 1.09375-4.304688.523438-5.507812-1.300781-1.203126-1.820312-.78125-4.265625.96875-5.578125l41.964843-31.378906-37.425781 21.609375c-1.917969 1.097656-4.359375.488281-5.539062-1.378906-1.179688-1.871094-.679688-4.339844 1.136718-5.597657l5.683594-3.898437-1.28125.734375c-1.90625 1.046875-4.296875.4375-5.464844-1.394531-1.171875-1.835938-.71875-4.261719 1.03125-5.550782l7.175782-5.042968-2.742188 1.585937c-1.90625 1.105469-4.34375.519531-5.539062-1.332031-1.195313-1.851563-.726563-4.316406 1.0625-5.597656l2.992187-2.148438c-1.550781.203125-3.085937-.476562-3.980469-1.757812-1.21875-1.78125-.859375-4.199219.824219-5.550782l6.765625-5.441406-2.117188 1.214844c-1.714843.984375-3.890624.613281-5.183593-.886719s-1.335938-3.707031-.109375-5.257813l8.746094-10.984374-3.453126 1.992187c-1.472656.847656-3.320312.703125-4.644531-.363281s-1.863281-2.835938-1.347656-4.460938l1.824219-5.695312c-.613282-.359375-1.121094-.871094-1.472656-1.488282-1.136719-1.976562-.460938-4.5 1.511718-5.640624l4.128906-2.378907c1.480469-.859375 3.335938-.71875 4.667969.355469s1.863281 2.855469 1.335938 4.484375l-.875 2.691406 13.058593-7.53125c1.714844-.996093 3.898438-.628906 5.195313.875 1.296875 1.503907 1.339844 3.714844.105469 5.269531l-8.753906 10.984376 29.664062-17.101563c1.867188-1.078125 4.246094-.535156 5.464844 1.242187 1.21875 1.773438.867187 4.1875-.808594 5.542969l-6.8125 5.46875 21.253906-12.253906c1.90625-1.105469 4.34375-.519531 5.542969 1.328125 1.195313 1.851562.726563 4.316406-1.066406 5.597656l-.476563.339844 11.972656-6.914062c1.90625-1.046876 4.296876-.433594 5.46875 1.398437 1.167969 1.832031.71875 4.257813-1.035156 5.546875l-7.191406 5.054688 12.585938-7.257813c1.917968-1.097656 4.359374-.488281 5.539062 1.382813 1.179688 1.867187.679688 4.335937-1.136719 5.59375l-5.714843 3.914062 5.53125-3.195312c1.890624-1.089844 4.304687-.519532 5.511718 1.300781 1.203125 1.824219.777344 4.269531-.96875 5.578125l-41.976562 31.382812 38.425781-22.148437c1.910156-1.042969 4.300781-.425781 5.464844 1.414062 1.164062 1.839844.703125 4.265625-1.054688 5.546875l-15.839843 10.976563 11.460937-6.609375c1.910156-1.121094 4.363281-.535156 5.5625 1.328125 1.199219 1.859375.714844 4.335937-1.09375 5.609375l-12.488281 8.910156 8.046875-4.648438c1.820312-1.058593 4.144531-.574218 5.394531 1.121094 1.25 1.695313 1.023438 4.058594-.523438 5.484375l-24.082031 22.296875 19.265625-11.113281c1.660156-.957031 3.761719-.644531 5.074219.75 1.3125 1.398437 1.488281 3.515625.425781 5.113281l-9.835937 14.789063 4.394531-2.535157c1.28125-.8125 2.902344-.859374 4.226562-.121093 1.324219.738281 2.136719 2.144531 2.117188 3.660156-.019531 1.519531-.871094 2.902344-2.214844 3.605469l-19.652344 11.34375c-1.660156.957031-3.761718.644531-5.074218-.75-1.308594-1.398438-1.488282-3.515625-.425782-5.113282l9.84375-14.789062-35.933593 20.734375c-1.820313 1.058594-4.144531.578125-5.394531-1.117187-1.25-1.695313-1.023438-4.058594.523437-5.488282l24.074219-22.296875-50.160156 28.960938c-.625.371093-1.339844.5625-2.066407.5625zm0 0" fill="#e4e8eb"/><path d="m351.105469 455.613281c-1.808594-.003906-3.40625-1.179687-3.941407-2.90625-.535156-1.726562.113282-3.601562 1.605469-4.625l9.75-6.722656-8.613281 4.953125c-1.90625 1.074219-4.320312.46875-5.5-1.375s-.714844-4.285156 1.058594-5.570312l24.964844-17.613282-20.523438 11.824219c-1.914062 1.101563-4.355469.5-5.539062-1.363281-1.183594-1.863282-.695313-4.328125 1.113281-5.597656l19.859375-13.863282-15.433594 8.910156c-1.902344 1.058594-4.304688.457032-5.484375-1.378906-1.175781-1.835937-.722656-4.269531 1.035156-5.558594l20.800781-14.773437-16.351562 9.414063c-1.902344 1.058593-4.304688.457031-5.484375-1.378907-1.175781-1.835937-.722656-4.269531 1.035156-5.558593l3.691407-2.617188c-1.902344.628906-3.980469-.199219-4.933594-1.964844-.949219-1.761718-.496094-3.953125 1.078125-5.195312l10.046875-7.929688-5.433594 3.140625c-1.753906 1.003907-3.972656.589844-5.25-.976562-1.277344-1.566407-1.230469-3.828125.105469-5.339844l11.230469-12.613281-6.085938 3.511718c-1.4375.824219-3.230469.710938-4.550781-.289062-1.320313-1-1.914063-2.695312-1.507813-4.304688l2.308594-9.082031c-.792969-.351562-1.453125-.945312-1.882812-1.703125-1.132813-1.96875-.460938-4.488281 1.503906-5.628906l4.128906-2.394531c1.4375-.832031 3.230469-.722657 4.554688.277343 1.324218 1 1.921874 2.695313 1.515624 4.304688l-1.726562 6.777344 19.820312-11.417969c1.753907-1.003906 3.976563-.589844 5.25.976563 1.277344 1.566406 1.230469 3.824218-.105468 5.339843l-11.230469 12.617188 32.917969-18.992188c1.871094-1.074219 4.253906-.523437 5.46875 1.261719 1.210937 1.789062.84375 4.207031-.84375 5.550781l-10.019532 7.894531 25.601563-14.765624c1.910156-1.101563 4.347656-.507813 5.539063 1.347656 1.1875 1.859375.710937 4.324218-1.089844 5.597656l-3.03125 2.148438 15.816406-9.132813c1.902344-1.0625 4.304688-.460937 5.484375 1.375 1.175781 1.835937.722656 4.269531-1.035156 5.558594l-20.808594 14.792969 22.394531-12.964844c1.914063-1.101563 4.355469-.5 5.539063 1.363281 1.1875 1.863281.695312 4.328125-1.113281 5.597656l-19.816407 13.847657 15.417969-8.902344c1.90625-1.070313 4.320312-.46875 5.5 1.375s.714844 4.289062-1.058594 5.570312l-25.03125 17.679688 20.570313-11.875c1.921875-1.097656 4.363281-.488282 5.542969 1.382812 1.179687 1.871094.675781 4.335938-1.140626 5.597656l-9.746093 6.703126 5.34375-3.078126c1.882812-1.046874 4.25-.46875 5.445312 1.320313 1.191407 1.792969.804688 4.199219-.886719 5.53125l-20.519531 15.625 15.960938-9.207031c1.875-1.058594 4.25-.5 5.453125 1.285156 1.207031 1.78125.839844 4.191406-.84375 5.535156l-7.515625 5.914063 2.90625-1.652344c1.761719-1.003906 3.988281-.582031 5.257812.992187 1.273438 1.578126 1.214844 3.84375-.136719 5.351563l-9.960937 10.988281 4.71875-2.722656c1.277344-.8125 2.902344-.859375 4.226563-.121094 1.324218.738282 2.136718 2.144532 2.117187 3.660156-.023437 1.515626-.871094 2.902344-2.214844 3.601563l-27.558593 15.914063c-1.757813 1.003906-3.984376.582031-5.257813-.992188-1.269531-1.574219-1.214844-3.839844.136719-5.347656l9.960937-10.992188-30.183593 17.382813c-1.875 1.078125-4.265626.527343-5.480469-1.265625-1.214844-1.789063-.835938-4.214844.863281-5.554688l7.539062-5.929687-22.179687 12.808593c-1.882813 1.066407-4.269531.496094-5.46875-1.304687s-.808594-4.222656.902344-5.550781l20.519531-15.632813-39.035156 22.546875c-.617188.367188-1.324219.566406-2.046875.578125zm0 0" fill="#e4e8eb"/><path d="m94.195312 222.625c-1.546874 0-2.960937-.867188-3.667968-2.242188-.707032-1.375-.582032-3.03125.316406-4.289062l6.6875-9.339844-10.410156 6.011719c-1.664063.957031-3.761719.644531-5.074219-.753906-1.3125-1.394531-1.488281-3.511719-.425781-5.109375l4.953125-7.429688c-1.671875.21875-3.3125-.582031-4.171875-2.03125-1.132813-1.972656-.460938-4.492187 1.503906-5.632812l13.519531-7.8125c1.660157-.957032 3.761719-.644532 5.070313.753906 1.3125 1.394531 1.488281 3.511719.429687 5.109375l-4.632812 6.9375 11.625-6.707031c1.683593-.960938 3.804687-.621094 5.105469.8125 1.300781 1.433594 1.429687 3.578125.3125 5.160156l-6.648438 9.328125 4.699219-2.707031c1.960937-1.027344 4.382812-.324219 5.488281 1.59375 1.109375 1.914062.507812 4.363281-1.359375 5.550781l-21.253906 12.246094c-.625.367187-1.339844.558593-2.066407.550781zm0 0" fill="#eb5463"/><path d="m295.882812 322.65625c-1.15625 0-2.257812-.484375-3.039062-1.335938-1.3125-1.425781-1.457031-3.574218-.347656-5.164062l5.691406-8.109375-11.882812 6.855469c-1.601563.914062-3.617188.660156-4.9375-.628906-1.320313-1.289063-1.625-3.296876-.746094-4.921876l6.425781-11.773437-.785156.445313c-1.960938 1.023437-4.378907.324218-5.488281-1.59375-1.105469-1.914063-.507813-4.363282 1.359374-5.550782l13.519532-7.859375c1.601562-.917969 3.617187-.660156 4.933594.628907 1.320312 1.289062 1.625 3.296874.746093 4.917968l-6.421875 11.792969 15.257813-8.800781c1.675781-.96875 3.796875-.640625 5.105469.78125 1.308593 1.425781 1.453124 3.566406.347656 5.15625l-5.683594 8.117187.710938-.414062c1.28125-.8125 2.902343-.859375 4.226562-.121094s2.136719 2.144531 2.117188 3.660156c-.019532 1.519531-.871094 2.902344-2.214844 3.605469l-16.828125 9.71875c-.625.378906-1.335938.585938-2.066407.59375zm0 0" fill="#eb5463"/><path d="m191.601562 420.367188c-1.632812 0-3.109374-.960938-3.773437-2.453126-.664063-1.492187-.382813-3.230468.707031-4.445312l3.304688-3.664062-5.136719 2.964843c-1.628906.941407-3.6875.667969-5.007813-.671875-1.324218-1.339844-1.574218-3.402344-.609374-5.019531l5.875-9.859375c-1.988282.980469-4.398438.214844-5.453126-1.734375-1.058593-1.945313-.390624-4.382813 1.511719-5.515625l13.519531-7.8125c1.621094-.957031 3.6875-.675781 4.996094.675781 1.324219 1.335938 1.578125 3.398438.617188 5.015625l-5.871094 9.851563 14.089844-8.128907c1.757812-1.011718 3.996094-.597656 5.273437.984376 1.273438 1.578124 1.214844 3.851562-.144531 5.359374l-3.304688 3.667969.726563-.421875c1.28125-.8125 2.902344-.859375 4.226563-.121094 1.324218.738282 2.136718 2.144532 2.117187 3.660157s-.871094 2.898437-2.214844 3.601562l-23.386719 13.511719c-.625.367188-1.339843.558594-2.0625.554688zm0 0" fill="#eb5463"/><path d="m136.632812 124.464844c-1.640624-.003906-3.125-.980469-3.78125-2.488282-.652343-1.503906-.351562-3.257812.769532-4.457031l18.167968-19.433593-36.335937 20.96875c-1.839844 1.050781-4.175781.542968-5.410156-1.179688-1.230469-1.722656-.960938-4.101562.628906-5.5l25.34375-22.050781-32.695313 18.863281c-1.859374 1.0625-4.226562.523438-5.445312-1.242188-1.21875-1.765624-.882812-4.167968.773438-5.53125l23.667968-19.347656-25.601562 14.773438c-1.816406.972656-4.070313.460937-5.285156-1.203125-1.21875-1.664063-1.019532-3.972657.460937-5.402344l27.015625-24.265625-24.636719 14.214844c-1.738281 1.003906-3.949219.613281-5.238281-.929688-1.285156-1.546875-1.273438-3.792968.027344-5.324218l16.277344-19.082032-.273438.148438c-1.277344.8125-2.902344.859375-4.226562.121094-1.324219-.738282-2.136719-2.144532-2.117188-3.660157.023438-1.519531.871094-2.902343 2.214844-3.605469l21.019531-12.121093c1.738281-.996094 3.9375-.601563 5.222656.933593 1.28125 1.539063 1.277344 3.777344-.011719 5.308594l-16.269531 19.085938 38.09375-22.027344c1.816407-.972656 4.074219-.460938 5.289063 1.207031 1.214844 1.664063 1.015625 3.96875-.464844 5.402344l-27.003906 24.269531 35.507812-20.503906c1.859375-1.058594 4.21875-.523438 5.4375 1.238281 1.21875 1.757813.890625 4.15625-.753906 5.523438l-23.660156 19.398437 25.601562-14.789062c1.835938-1.035156 4.160156-.519532 5.386719 1.195312s.960937 4.082032-.613281 5.484375l-25.335938 22.050781 23.34375-13.480468c1.773438-1.023438 4.03125-.597656 5.304688 1.007812 1.273437 1.605469 1.175781 3.902344-.226563 5.394532l-18.167969 19.429687 5.882813-3.386719c1.277344-.8125 2.902344-.859375 4.226563-.121094 1.324218.742188 2.136718 2.148438 2.117187 3.664063-.023437 1.515625-.871094 2.898437-2.214844 3.601563l-29.976562 17.269531c-.617188.367187-1.316407.566406-2.035157.578125zm0 0" fill="#5e9cea"/><path d="m247.738281 124.917969c-1.675781-.003907-3.1875-1.023438-3.816406-2.578125-.632813-1.554688-.257813-3.335938.941406-4.507813l17.9375-17.441406-32.023437 18.488281c-1.839844 1.066406-4.183594.566406-5.425782-1.160156-1.238281-1.722656-.96875-4.109375.628907-5.511719l26.648437-23.527343-34.363281 19.820312c-1.832031 1.058594-4.167969.558594-5.410156-1.15625-1.242188-1.714844-.984375-4.089844.59375-5.5l30.558593-27.25-32.886718 18.992188c-1.816406.988281-4.082032.476562-5.304688-1.191407-1.21875-1.667969-1.015625-3.984375.476563-5.414062l24.597656-22.191407-20.246094 11.679688c-1.777343 1.011719-4.027343.574219-5.292969-1.03125-1.265624-1.605469-1.164062-3.898438.238282-5.386719l12.875-13.535156c-1.839844-.066406-3.414063-1.347656-3.855469-3.132813-.445313-1.789062.351563-3.652343 1.945313-4.570312l21.019531-12.125c1.773437-1.015625 4.027343-.574219 5.292969 1.03125 1.265624 1.605469 1.164062 3.898438-.242188 5.386719l-11.320312 11.898437 29.40625-16.976562c1.816406-.988282 4.085937-.480469 5.304687 1.191406 1.222656 1.667969 1.019531 3.980469-.472656 5.414062l-24.609375 22.207032 33.859375-19.554688c1.8125-.964844 4.058593-.445312 5.269531 1.214844s1.015625 3.957031-.457031 5.390625l-30.613281 27.25 35.148437-20.28125c1.835937-1.066406 4.183594-.5625 5.421875 1.160156 1.242188 1.726563.96875 4.109375-.625 5.511719l-26.625 23.511719 25.089844-14.484375c1.804687-1.054688 4.109375-.597656 5.375 1.070312 1.261718 1.664063 1.082031 4.007813-.421875 5.460938l-17.925781 17.523437 7.265624-4.226562c1.960938-1.027344 4.382813-.324219 5.488282 1.589843 1.109375 1.917969.507812 4.367188-1.359375 5.550782l-36.019531 20.804687c-.625.378907-1.335938.578125-2.066407.585938zm0 0" fill="#eb5463"/><path d="m356.28125 123.777344c-1.695312 0-3.21875-1.039063-3.835938-2.621094-.621093-1.578125-.210937-3.375 1.03125-4.53125l21.203126-19.679688-33.1875 19.167969c-1.878907 1.097657-4.289063.542969-5.503907-1.261719-1.214843-1.804687-.820312-4.246093.90625-5.574218l14.375-11.148438-17.613281 10.164063c-1.863281 1.0625-4.230469.527343-5.445312-1.238281-1.21875-1.765626-.882813-4.167969.769531-5.53125l23.082031-18.753907-24.574219 14.167969c-1.882812 1.058594-4.261719.492188-5.460937-1.300781-1.199219-1.796875-.8125-4.210938.882812-5.542969l11.511719-8.828125-8.828125 5.09375c-1.835938 1.035156-4.160156.519531-5.386719-1.195313-1.226562-1.714843-.960937-4.082031.617188-5.484374l16.6875-14.527344-10.40625 6.003906c-1.816407.988281-4.082031.480469-5.304688-1.191406-1.21875-1.667969-1.015625-3.980469.476563-5.414063l9.628906-8.746093c-1.179688-.796876-1.863281-2.144532-1.808594-3.566407.050782-1.421875.832032-2.71875 2.0625-3.425781l21.015625-12.125c1.820313-.988281 4.085938-.476562 5.304688 1.191406 1.222656 1.667969 1.019531 3.984375-.472657 5.414063l-1.410156 1.28125 13.855469-7.992188c1.839844-1.035156 4.160156-.519531 5.386719 1.195313 1.226562 1.714844.960937 4.082031-.613282 5.484375l-16.679687 14.507812 26.472656-15.277343c1.882813-1.078126 4.28125-.519532 5.488281 1.285156 1.207032 1.804687.8125 4.234375-.902343 5.5625l-11.5625 8.851562 14.773437-8.511718c1.859375-1.046876 4.210938-.5 5.421875 1.257812 1.210938 1.753906.882813 4.144531-.757812 5.511719l-23.0625 18.78125 25.203125-14.550781c1.878906-1.074219 4.269531-.515626 5.472656 1.28125 1.207031 1.796874.824219 4.222656-.882812 5.554687l-14.34375 11.132813 12.445312-7.1875c1.820312-1.054688 4.148438-.574219 5.398438 1.121093 1.25 1.695313 1.023437 4.058594-.527344 5.488281l-21.214844 19.679688 15.074219-8.699219c1.972656-1.121093 4.480469-.4375 5.613281 1.527344 1.136719 1.964844.472656 4.476563-1.484375 5.625l-46.839844 27.019531c-.621093.367188-1.328125.554688-2.050781.554688zm0 0" fill="#d56fac"/><g fill="#262626"><path d="m39.058594 487.859375c65.082031 8.894531 137.40625.074219 202.988281.074219h209.386719c.898437.113281 1.8125.085937 2.707031-.082032 56.9375-9.183593 39.828125-83.96875 39.828125-126.347656v-257.652344c0-38.515624 12.601562-98.304687-41.027344-101.722656-68.144531-4.359375-137.992187 0-206.25 0-65.910156 0-133.136718-3.957031-198.921875 0-54.992187 3.300782-44.742187 57.011719-44.742187 97.128906v253.1875c0 38.472657-18.515625 127.941407 36.03125 135.414063zm-24.058594-448.089844c15.566406-50.203125 99.972656-30.804687 139.183594-30.804687h229.195312c20.207032 0 44.003906-3.441406 63.988282 0 33.660156 5.78125 34.628906 25.652344 34.628906 50.425781v344.476563c0 21.71875 8.734375 71.316406-25.929688 77.230468h-363.355468c-13.429688 0-34.949219 4.332032-47.816407 0-34.515625-11.613281-29.910156-35.785156-29.910156-63.273437v-320.050781c.015625-16.507813-4.9375-42.035157.015625-58.003907zm0 0"/><path d="m44.292969 199.324219v54.609375c.019531.1875.066406.367187.132812.542968-.046875.136719-.078125.273438-.101562.414063v97.675781c0 .082032-.089844.15625-.089844.25v50.875c0 13.675782-4.605469 37.839844 7.796875 47.691406 10.535156 8.367188 31.875 4.582032 44.097656 4.582032h51.40625c.464844.089844.933594.144531 1.402344.160156h99.097656c.101563 0 .164063 0 .265625-.050781.3125 0 .609375-.097657.933594-.148438.46875-.058593.933594-.164062 1.386719-.3125.902344-.316406 1.726562-.8125 2.425781-1.464843h89.429687c.867188.40625 1.808594.621093 2.765626.636718h81.382812c.367188.023438.738281.023438 1.105469 0h.148437c.488282.007813.972656-.019531 1.453125-.082031 23.875-3.855469 23.339844-20.769531 23.339844-40.464844v-62.347656l.039063-.109375v-99.09375c-.023438-.226562-.078126-.449219-.15625-.660156 0-.109375.117187-.207032.117187-.316406v-49.019532c0-13.90625 5.300781-40.464844-9.398437-48.625-11.089844-6.148437-30.300782-2.597656-42.289063-2.597656h-48.871094c-.679687-.128906-1.367187-.1875-2.058593-.175781h-96.558594c-.773438-.703125-1.78125-1.085938-2.824219-1.074219h-99.097656c-.777344.015625-1.550781.09375-2.3125.242188h-50.375c-13.097657 0-34.148438-3.660157-45.609375 4.796874-13.097656 9.667969-8.984375 29.96875-8.984375 44.066407zm11.992187 101.910156v-44.210937h87.105469v90.878906h-87.777344c.53125-3.957032.671875-11.5625.671875-12.628906zm285.296875 47.898437h-73.734375c-3.769531-.207031-7.546875-.207031-11.3125 0-.675781.066407-1.351562.066407-2.023437 0v-92.613281h73.734375c3.769531.203125 7.546875.203125 11.3125 0 .675781-.070312 1.351562-.070312 2.023437 0zm-99.09375-1.414062h-87.074219v-90.457031h87.074219zm111.125.828125v-91.449219h87.066407v91.480469zm-198.132812 8.480469h86.941406v89.8125h-86.941406zm86.988281-107.710938h-87.039062v-91.152344h87.039062zm-183.507812 192.734375c-7.757813-10.222656-2.585938-37.160156-2.585938-48.804687v-36.375h86.949219v90.128906h-34.683594c-10.941406 0-41.65625 5.636719-49.679687-4.949219zm209.035156 6.765625c-3.734375 0-7.582032-.273437-11.3125 0-.703125.050782-1.40625.050782-2.105469 0v-93.203125h87.039063v93.203125zm163.285156-.636718h-72.464844c-1.238281 0-3.359375.289062-5.242187.304687v-1.015625c2.699219-29.910156.328125-61.109375.058593-91.277344h87.164063c.101563 1.808594.074219 3.617188-.082031 5.417969-.867188 9.085937 0 18.753906 0 27.886719 0 9.441406 6.464844 55.570312-9.433594 58.683594zm8.589844-281.089844c4.402344 11.96875.824218 30.292968.824218 42.644531v39.746094h-87.121093v-92.5625h34.742187c13.136719 0 45.566406-6.09375 51.554688 10.171875zm-111.707032-10c3.707032 0 7.605469.339844 11.304688 0 .714844-.0625 1.433594-.0625 2.148438 0v92.96875h-87.089844v-92.96875zm-271.847656 12.972656c5.105469-19.398438 34.683594-12.136719 49.546875-12.136719h37.511719v91.664063h-87.058594v-38.234375c0-12.3125-3.15625-29.316407 0-41.292969zm0 0"/><path d="m122.347656 202.136719c-1.421875-26.367188-45.304687-21.296875-44.988281 3.207031.335937 26.664062 43.691406 20.957031 44.988281-3.207031zm-21.3125-11.136719c5.699219 2.484375 9.378906 8.121094 9.355469 14.34375-.363281 6.65625-4.953125 14.402344-12.519531 10.824219-5.304688-2.65625-8.625-8.105469-8.554688-14.039063.082032-6.257812 4.683594-13.878906 11.71875-11.128906zm0 0"/><path d="m275.550781 304.4375c-.113281 26.214844 43.769531 20.175781 44.992188-3.203125-1.398438-25.988281-44.890625-20.445313-44.992188 3.203125zm19.820313 10.636719c-4.890625-2.890625-7.875-8.160157-7.84375-13.839844.066406-6.671875 4.953125-14.863281 12.46875-11.03125 5.269531 2.800781 8.574218 8.269531 8.605468 14.234375-.40625 7.09375-5.171874 15.28125-13.246093 10.636719zm0 0"/><path d="m176.453125 403.535156c.300781 26.59375 43.703125 20.820313 44.992187-3.203125-1.414062-26.292969-45.269531-21.148437-44.992187 3.203125zm20.523437 10.886719c-5.304687-2.683594-8.625-8.144531-8.5625-14.089844.066407-6.269531 4.632813-14.039062 11.707032-11.199219 5.707031 2.515626 9.382812 8.167969 9.367187 14.402344-.363281 6.65625-4.875 14.527344-12.511719 10.886719zm0 0"/><path d="m180.230469 79.375c-3.199219-59.300781-94.210938-57.742188-94.6875.988281-.488281 60.085938 91.5625 56.949219 94.6875-.988281zm-48.722657-36.335938c20.25.554688 36.421876 17.050782 36.574219 37.308594-1.082031 20.066406-15.507812 38.707032-37.632812 36.335938-18.65625-2.617188-32.59375-18.472656-32.800781-37.308594-.460938-19.3125 14.601562-35.449219 33.898437-36.320312zm0 0"/><path d="m295.765625 78.265625c-3.128906-58.183594-94.304687-52.476563-94.535156 3.207031-.25 58.945313 91.582031 51.695313 94.535156-3.207031zm-76.996094-20.320313c5.65625-9.355468 9.082031-9.65625 20.59375-12.703124 10.960938-2.890626 13.519531-4.625 22.472657 0 13.394531 7.160156 21.828124 21.042968 22.007812 36.230468-.207031 7.835938-2.527344 15.472656-6.714844 22.097656-10.460937 13.152344-28.648437 17.289063-43.769531 9.949219-12.445313-7.386719-20.085937-20.777343-20.113281-35.253906.019531-7.140625 1.925781-14.152344 5.523437-20.320313zm0 0"/><path d="m411.472656 79.441406c-3.207031-59.460937-94.257812-58.210937-94.722656.824219-.46875 60.316406 91.582031 57.410156 94.722656-.824219zm-48.632812-36.15625c20.171875.4375 36.339844 16.835938 36.492187 37.015625-1.082031 20.113281-15.632812 38.449219-37.671875 36.167969-18.613281-2.476562-32.578125-18.253906-32.769531-37.027344-.414063-19.285156 14.675781-35.355468 33.949219-36.15625zm0 0"/><path d="m130.582031 79.042969c.007813-1.101563.230469-2.191407.652344-3.210938.234375-.546875.636719-1 1.148437-1.304687 2.328126-.113282 4.507813-1.175782 6.027344-2.941406 1.410156-2.21875-1.199218-3.195313-3.121094-3.0625-7.175781.480468-16.0625 3.890624-16.617187 12.203124-.296875 4.355469 11.671875 1.925782 11.910156-1.683593zm0 0"/><path d="m246.234375 79.167969c.074219-1.171875.511719-4.003907 1.496094-4.070313 2.128906-.140625 6.449219-1.652344 6.761719-4.1875.339843-2.792968-3.375-2.90625-5.226563-2.785156-7.378906-.089844-13.738281 5.179688-15.019531 12.445312-.339844 5.078126 11.699218 2.832032 11.988281-1.402343zm0 0"/><path d="m361.832031 78.265625c.210938-1.082031.488281-2.152344.824219-3.203125.273438-1.503906 2.480469-1.503906-1.164062-1.253906 2.910156-.015625 5.738281-.992188 8.035156-2.773438 1.488281-1.917968-1.34375-1.710937-2.730469-1.652344-7.226563.484376-16.335937 3.757813-16.890625 12.054688-.121094 1.296875 11.726562.125 11.925781-3.171875zm0 0"/><path d="m39.898438 83.941406h16.515624c3.0625.339844 6.066407-1.023437 7.820313-3.550781 1.175781-2.476563-1.023437-4.59375-3.523437-4.59375h-16.515626c-3.0625-.339844-6.066406 1.023437-7.820312 3.550781-1.175781 2.472656 1.023438 4.59375 3.523438 4.59375zm0 0"/><path d="m435.957031 82.761719h16.515625c2.960938.132812 5.84375-.972657 7.953125-3.058594 1.417969-2.261719-1.230469-2.722656-3.03125-2.722656h-16.515625c-2.960937-.136719-5.84375.972656-7.953125 3.054687-1.402343 2.261719 1.246094 2.726563 3.03125 2.726563zm0 0"/></g></svg>